<!DOCTYPE svg PUBLIC "-//W3C//DTD SVG 20010904//EN" "http://www.w3.org/TR/2001/REC-SVG-20010904/DTD/svg10.dtd">
<svg version="1.0" xmlns="http://www.w3.org/2000/svg" width="94px" height="94px" viewBox="0 0 940 940"
     preserveAspectRatio="xMidYMid meet">
    <g id="layer101" fill="#ffffff" stroke="none">
        <path d="M20 895 l0 -34 58 -3 58 -3 -68 -165 c-37 -90 -65 -166 -63 -168 2 -3 26 13 52 34 26 22 55 45 64 52 14 10 12 -10 -12 -130 -16 -78 -28 -147 -26 -152 2 -5 32 25 66 67 35 43 65 77 66 77 1 0 -15 -100 -36 -222 -21 -122 -37 -224 -35 -226 3 -2 59 87 125 198 131 220 128 219 133 92 l3 -64 49 67 49 67 65 -153 c36 -84 67 -148 69 -143 1 5 -8 100 -20 212 -13 111 -21 202 -18 202 3 -1 24 -19 46 -40 22 -22 41 -35 43 -30 2 6 -1 33 -7 61 -6 29 -10 53 -9 54 2 2 61 -46 131 -107 71 -60 130 -108 132 -106 2 1 -50 104 -115 228 -66 123 -118 225 -117 227 2 1 25 -4 52 -12 75 -23 83 -20 49 18 -69 75 -68 72 -16 72 46 0 47 1 50 33 l3 32 -410 0 -411 0 0 -35z m592 -114 c16 -40 27 -75 25 -77 -1 -2 -28 12 -60 31 l-56 34 -3 -82 -3 -82 -23 43 c-12 23 -27 40 -32 37 -4 -3 -14 11 -20 31 l-12 36 -41 -76 c-27 -50 -44 -72 -49 -63 -4 6 -8 47 -8 90 0 42 -3 77 -6 77 -3 0 -26 -16 -50 -36 -50 -41 -50 -42 -37 64 l6 52 170 -2 169 -3 30 -74z"/>
    </g>

</svg>