<!DOCTYPE svg PUBLIC "-//W3C//DTD SVG 20010904//EN" "http://www.w3.org/TR/2001/REC-SVG-20010904/DTD/svg10.dtd">
<svg version="1.0" xmlns="http://www.w3.org/2000/svg" width="128px" height="128px" viewBox="0 0 1280 1280"
     preserveAspectRatio="xMidYMid meet">
    <g id="layer101" fill="#ffffff" stroke="none">
        <path d="M530 1054 c-106 -28 -222 -120 -270 -214 -85 -166 -59 -367 65 -499 98 -105 201 -146 344 -139 115 7 185 35 260 104 115 106 157 207 149 355 -4 70 -12 101 -36 154 -36 75 -124 170 -190 204 -97 50 -218 63 -322 35z m263 -112 c65 -33 128 -97 162 -166 24 -48 28 -70 28 -140 1 -74 -3 -91 -31 -149 -38 -76 -92 -129 -171 -165 -80 -37 -192 -37 -272 0 -146 67 -223 210 -198 366 20 128 110 231 239 273 14 5 63 7 110 6 66 -2 96 -7 133 -25z"/>
        <path d="M562 881 c-184 -64 -239 -294 -104 -430 107 -107 266 -108 372 -1 72 71 94 155 68 258 -17 68 -104 155 -177 176 -69 20 -93 20 -159 -3z m176 -108 c48 -35 72 -81 72 -135 0 -101 -53 -159 -151 -166 -46 -3 -65 0 -97 18 -117 66 -107 247 18 299 38 16 127 7 158 -16z"/>
        <path d="M584 696 c-59 -50 -19 -150 61 -150 80 0 120 100 61 150 -17 15 -40 24 -61 24 -21 0 -44 -9 -61 -24z"/>
    </g>

</svg>